<svg xmlns="http://www.w3.org/2000/svg" viewBox="0 0 500 500">
  <path d="M250 0a250 250 0 1 0 0 500 250 250 0 0 0 0-500Zm74 339c-24.2 0-42.5-12-46.7-32.4h-1.8a64.2 64.2 0 0 1-51 29c-32.4 0-56.3-23-56.3-64.7 0-50.3 35.8-104.8 84.4-104.8 18.7 0 28 6.4 34.9 21.3h1.7l6-17h33.1l-18.3 92c-5.5 27.2.5 40 18.8 40 23.4 0 48-30.7 48-79.2 0-61.3-34.8-111.6-111-111.6-71.2 0-141 61.3-141 155 0 80 53.7 121.8 119.7 121.8 23.4 0 47.2-6.8 65.1-16.2l13.2 31.5a162.1 162.1 0 0 1-82.2 21.3c-85.1 0-157.5-52.8-157.5-156.7C83 151.6 168.2 75 269.6 75c90.3 0 147.3 60 147.3 146.5 0 77.9-50.2 117.5-92.8 117.5Zm-44.2-121-11 59.7C256 293 245.7 299 235 299c-13.2 0-23.4-10.3-23.4-31.1 0-27.7 17.9-64.3 44.3-64.3 10.2 0 17 4.2 23.8 14.5Z"/>
</svg>