<?xml version="1.0" encoding="UTF-8"?>
<svg id="Layer_1" data-name="Layer 1" xmlns="http://www.w3.org/2000/svg" viewBox="0 0 500 500">
  <path d="m250.291,4.374C111.933,4.374.084,117.048.084,256.44c0,111.424,71.665,205.742,171.084,239.124,12.43,2.51,16.983-5.424,16.983-12.097,0-5.844-.41-25.874-.41-46.744-69.601,15.027-84.095-30.048-84.095-30.048-11.185-29.213-27.759-36.721-27.759-36.721-22.781-15.441,1.659-15.441,1.659-15.441,25.27,1.67,38.529,25.874,38.529,25.874,22.366,38.391,58.406,27.544,72.905,20.865,2.069-16.276,8.701-27.544,15.744-33.802-55.512-5.844-113.918-27.544-113.918-124.366,0-27.544,9.936-50.078,25.679-67.604-2.484-6.259-11.185-32.138,2.489-66.774,0,0,21.126-6.678,68.762,25.874,20.394-5.518,41.427-8.324,62.554-8.348,21.126,0,42.662,2.924,62.549,8.348,47.64-32.552,68.767-25.874,68.767-25.874,13.674,34.637,4.968,60.516,2.484,66.774,16.158,17.526,25.684,40.061,25.684,67.604,0,96.822-58.406,118.102-114.333,124.366,9.116,7.928,16.983,22.95,16.983,46.739,0,33.802-.41,60.931-.41,69.274,0,6.678,4.558,14.612,16.983,12.107,99.419-33.392,171.084-127.705,171.084-239.129.41-139.392-111.849-252.066-249.792-252.066Z" fill="#24292f" fill-rule="evenodd" stroke-width="0"/>
</svg>