<?xml version="1.0" encoding="UTF-8" standalone="no"?>
<svg
   version="1.1"
   width="500"
   height="500"
   viewBox="0 0 500 500"
   xml:space="preserve"
   id="svg1"
   sodipodi:docname="mail-edited.svg"
   inkscape:version="1.3 (0e150ed, 2023-07-21)"
   xmlns:inkscape="http://www.inkscape.org/namespaces/inkscape"
   xmlns:sodipodi="http://sodipodi.sourceforge.net/DTD/sodipodi-0.dtd"
   xmlns="http://www.w3.org/2000/svg"
   xmlns:svg="http://www.w3.org/2000/svg"><sodipodi:namedview
   id="namedview1"
   pagecolor="#ffffff"
   bordercolor="#000000"
   borderopacity="0.25"
   inkscape:showpageshadow="2"
   inkscape:pageopacity="0.0"
   inkscape:pagecheckerboard="0"
   inkscape:deskcolor="#d1d1d1"
   inkscape:zoom="0.921875"
   inkscape:cx="127.45763"
   inkscape:cy="286.37288"
   inkscape:window-width="1440"
   inkscape:window-height="847"
   inkscape:window-x="0"
   inkscape:window-y="25"
   inkscape:window-maximized="0"
   inkscape:current-layer="svg1" />&#10;&#10;<defs
   id="defs1">&#10;</defs>&#10;<g
   style="opacity:1;fill:none;fill-rule:nonzero;stroke:none;stroke-width:0;stroke-linecap:butt;stroke-linejoin:miter;stroke-miterlimit:10;stroke-dasharray:none"
   transform="matrix(6.6715761,0,0,6.6597147,2.575432,36.439751)"
   id="g1">&#10;	<path
   d="M 66.698734,0.04508438 H 7.4740146 c -4.3343082,0 -7.86004512,4.06258902 -7.86004512,9.05686752 V 55.033962 c 0,4.993319 3.52573692,9.055908 7.86004512,9.055908 H 66.698734 c 4.334308,0 7.860045,-4.062589 7.860045,-9.055908 V 9.1019519 c 0,-4.9942785 -3.525737,-9.05686752 -7.860045,-9.05686752 z m 0,4.74480452 c 0.157384,0 0.308106,0.031664 0.460494,0.053733 L 37.086374,36.634292 7.0135204,4.8436218 C 7.1659081,4.821553 7.3166305,4.7898889 7.4740146,4.7898889 Z m 3.742244,50.2440731 c 0,2.37672 -1.678764,4.311104 -3.742244,4.311104 H 7.4740146 c -2.0634804,0 -3.7422442,-1.934384 -3.7422442,-4.311104 V 9.1019519 c 0,-0.3943609 0.060789,-0.7695314 0.1473915,-1.1322283 L 26.675707,32.067957 12.311285,47.252291 c -0.837716,0.884673 -0.894341,2.386315 -0.12574,3.351588 0.406367,0.509503 0.960959,0.768572 1.518048,0.768572 0.497134,0 0.995934,-0.206296 1.391476,-0.624645 l 14.625896,-15.460674 5.973101,6.313612 c 0.393876,0.41643 0.892676,0.624645 1.391475,0.624645 0.4988,0 0.998432,-0.208215 1.392308,-0.624645 l 5.973102,-6.313612 14.625895,15.460674 c 0.395543,0.418349 0.894342,0.624645 1.391476,0.624645 0.55709,0 1.112514,-0.25811 1.518049,-0.768572 0.7686,-0.965273 0.712808,-2.466915 -0.124908,-3.351588 L 47.497041,32.067957 70.293586,7.9706831 c 0.0866,0.3626969 0.147392,0.7378675 0.147392,1.1322284 z"
   style="opacity:1;fill:#000000;fill-rule:nonzero;stroke:none;stroke-width:0.893872;stroke-linecap:butt;stroke-linejoin:miter;stroke-miterlimit:10;stroke-dasharray:none"
   stroke-linecap="round"
   id="path1" />&#10;</g>&#10;</svg>
